<svg xmlns="http://www.w3.org/2000/svg" xmlns:xlink="http://www.w3.org/1999/xlink" width="500" zoomAndPan="magnify" viewBox="0 0 375 374.999991" height="500" preserveAspectRatio="xMidYMid meet" version="1.0"><defs><g/><clipPath id="id1"><path d="M 121.480469 91.492188 L 248.230469 91.492188 L 248.230469 218.242188 L 121.480469 218.242188 Z M 121.480469 91.492188 " clip-rule="nonzero"/></clipPath><clipPath id="id2"><path d="M 41 99 L 229 99 L 229 256 L 41 256 Z M 41 99 " clip-rule="nonzero"/></clipPath><clipPath id="id3"><path d="M 29.347656 103.367188 L 221.234375 78.421875 L 241.636719 235.351562 L 49.75 260.296875 Z M 29.347656 103.367188 " clip-rule="nonzero"/></clipPath><clipPath id="id4"><path d="M 29.347656 103.367188 L 221.234375 78.421875 L 241.636719 235.351562 L 49.75 260.296875 Z M 29.347656 103.367188 " clip-rule="nonzero"/></clipPath><clipPath id="id5"><path d="M 203 121 L 209 121 L 209 127 L 203 127 Z M 203 121 " clip-rule="nonzero"/></clipPath><clipPath id="id6"><path d="M 29.347656 103.367188 L 221.234375 78.421875 L 241.636719 235.351562 L 49.75 260.296875 Z M 29.347656 103.367188 " clip-rule="nonzero"/></clipPath><clipPath id="id7"><path d="M 29.347656 103.367188 L 221.234375 78.421875 L 241.636719 235.351562 L 49.75 260.296875 Z M 29.347656 103.367188 " clip-rule="nonzero"/></clipPath><clipPath id="id8"><path d="M 120 150 L 158 150 L 158 187 L 120 187 Z M 120 150 " clip-rule="nonzero"/></clipPath><clipPath id="id9"><path d="M 160.769531 159.484375 L 141.492188 190.308594 L 110.46875 170.90625 L 129.746094 140.078125 Z M 160.769531 159.484375 " clip-rule="nonzero"/></clipPath><clipPath id="id10"><path d="M 123 151 L 175 151 L 175 194 L 123 194 Z M 123 151 " clip-rule="nonzero"/></clipPath><clipPath id="id11"><path d="M 182.324219 167.742188 L 164.476562 202.421875 L 115.796875 177.367188 L 133.640625 142.691406 Z M 182.324219 167.742188 " clip-rule="nonzero"/></clipPath></defs><g clip-path="url(#id1)"><path fill="#ffbd59" d="M 184.855469 91.492188 C 149.855469 91.492188 121.480469 119.867188 121.480469 154.867188 C 121.480469 189.867188 149.855469 218.242188 184.855469 218.242188 C 219.855469 218.242188 248.230469 189.867188 248.230469 154.867188 C 248.230469 119.867188 219.855469 91.492188 184.855469 91.492188 " fill-opacity="1" fill-rule="nonzero"/></g><g clip-path="url(#id2)"><g clip-path="url(#id3)"><g clip-path="url(#id4)"><path fill="#120f35" d="M 60.605469 99.320312 C 60.492188 99.335938 60.398438 99.371094 60.304688 99.417969 C 59.992188 99.46875 59.8125 99.613281 59.734375 99.847656 C 59.242188 100.308594 59.351562 100.601562 60.53125 103.253906 C 60.929688 104.152344 61.9375 107.746094 62.773438 111.242188 C 65.042969 120.738281 66.851562 126.453125 69.503906 132.535156 C 74.4375 143.84375 82.574219 154.289062 91.832031 162.710938 C 95.410156 165.964844 98.417969 167.398438 104.265625 170.207031 C 110.117188 173.015625 112.742188 174.242188 112.785156 174.527344 C 112.832031 174.835938 110.414062 176.503906 107.054688 178.480469 L 104.535156 179.960938 L 98.527344 180.734375 C 91.980469 181.574219 88.410156 181.597656 82.121094 180.847656 C 77.488281 180.292969 74.984375 179.519531 62.621094 174.847656 C 56.339844 172.476562 50.730469 170.433594 50.15625 170.3125 C 49.210938 170.113281 49.050781 170.15625 48.445312 170.738281 C 47.5 171.652344 45.628906 175.445312 45.171875 177.390625 C 44.832031 178.839844 44.851562 179.398438 45.308594 182.011719 C 45.59375 183.644531 45.914062 185.085938 46.019531 185.21875 C 46.128906 185.351562 46 185.425781 45.730469 185.390625 C 44.960938 185.292969 43.054688 187.164062 42.230469 188.816406 C 41.140625 191.007812 41.101562 193.730469 42.109375 197.609375 C 42.71875 199.949219 43.078125 200.808594 44.109375 202.339844 C 44.800781 203.371094 45.839844 204.566406 46.421875 205 L 47.472656 205.785156 L 46.4375 207.285156 C 45.867188 208.117188 45.167969 209.449219 44.871094 210.238281 C 44.480469 211.289062 44.394531 211.753906 44.566406 213.359375 C 44.535156 214.320312 44.664062 215.28125 44.941406 216.253906 C 45.203125 218.046875 45.398438 218.4375 46.246094 219.714844 C 47.570312 221.695312 49.140625 223.171875 51.730469 224.878906 C 53.578125 226.097656 53.691406 226.238281 53.59375 227.019531 C 53.535156 227.480469 53.65625 229.121094 53.855469 230.667969 C 54.195312 233.296875 54.292969 233.578125 55.316406 235.117188 C 57.179688 237.917969 59.867188 239.488281 64.769531 240.640625 L 67.449219 241.269531 L 67.953125 242.414062 C 68.226562 243.042969 68.800781 244.058594 69.230469 244.675781 C 69.660156 245.292969 70.296875 246.457031 70.644531 247.265625 C 71.519531 249.289062 73.703125 251.257812 76.734375 252.75 C 79.566406 254.144531 83.09375 255.351562 84.050781 255.253906 C 84.113281 255.246094 84.1875 255.246094 84.261719 255.242188 C 84.371094 255.265625 84.476562 255.28125 84.574219 255.296875 C 85.03125 255.359375 85.375 255.402344 85.660156 255.425781 C 86.292969 255.53125 86.847656 255.402344 87.867188 254.941406 C 89.4375 254.238281 90.535156 252.039062 94.09375 242.402344 C 99.039062 229.011719 100.671875 225.238281 103.394531 220.917969 C 104.898438 218.535156 106.375 217.097656 108.585938 215.875 C 110.453125 214.839844 116.320312 213.886719 119.914062 214.039062 C 121.3125 214.097656 122.558594 214.066406 122.679688 213.96875 C 122.800781 213.871094 123.503906 214.007812 124.253906 214.269531 C 125.003906 214.535156 126.359375 214.855469 127.273438 214.988281 C 128.1875 215.125 131.058594 215.613281 133.65625 216.078125 C 143.148438 217.769531 147.378906 218.105469 153.265625 217.625 C 165.902344 216.597656 177.804688 211.054688 184.960938 202.867188 C 189.070312 198.164062 191.6875 193.390625 194.519531 185.429688 C 197.199219 177.894531 198.617188 171.632812 199.851562 161.867188 C 201.105469 151.949219 202.558594 145.898438 204.496094 142.535156 C 206.199219 139.585938 209.484375 137.394531 213.972656 136.222656 C 216.039062 135.683594 216.921875 135.597656 220.273438 135.605469 C 222.414062 135.613281 225.066406 135.503906 226.160156 135.367188 C 228.0625 135.128906 228.15625 135.085938 228.238281 134.425781 C 228.378906 133.269531 227.519531 132.429688 224.550781 130.792969 C 218.78125 127.613281 217.445312 126.503906 213.988281 122.046875 C 211.417969 118.734375 210.398438 117.925781 207.660156 117.015625 C 202.945312 115.445312 196.375 115.550781 193.042969 117.253906 C 189.792969 118.914062 186.515625 121.792969 183.875 125.308594 C 181.457031 128.535156 175.921875 134.9375 174.085938 136.640625 C 173.152344 137.503906 171.644531 138.71875 170.730469 139.339844 C 168.382812 141.6875 164.925781 142.320312 162.101562 142.515625 C 161.15625 142.488281 160.246094 142.398438 159.5625 142.167969 C 154.046875 140.296875 148.042969 137.738281 144.671875 132.789062 C 144.066406 131.902344 142.601562 129.472656 141.414062 127.375 C 138.859375 122.875 136.609375 120.164062 132.890625 117.152344 C 129.839844 114.675781 127.785156 113.742188 121.761719 112.066406 C 115.300781 110.265625 109.738281 109.21875 90.464844 106.199219 C 76.585938 104.027344 73.300781 103.3125 67.621094 101.238281 C 65.226562 100.363281 62.644531 99.550781 61.875 99.425781 C 61.242188 99.324219 60.878906 99.28125 60.605469 99.320312 Z M 47.320312 185.632812 C 47.46875 185.613281 47.605469 185.710938 47.621094 185.847656 C 47.640625 185.988281 47.542969 186.191406 47.410156 186.300781 C 47.273438 186.410156 47.140625 186.3125 47.109375 186.085938 C 47.078125 185.855469 47.175781 185.652344 47.320312 185.632812 Z M 47.320312 185.632812 " fill-opacity="1" fill-rule="nonzero"/></g></g></g><g clip-path="url(#id5)"><g clip-path="url(#id6)"><g clip-path="url(#id7)"><path fill="#ffffff" d="M 208.972656 123.957031 C 209.015625 124.289062 208.992188 124.617188 208.90625 124.941406 C 208.820312 125.265625 208.675781 125.5625 208.46875 125.828125 C 208.265625 126.09375 208.019531 126.308594 207.726562 126.476562 C 207.4375 126.644531 207.125 126.75 206.792969 126.792969 C 206.460938 126.835938 206.132812 126.8125 205.808594 126.726562 C 205.484375 126.640625 205.191406 126.492188 204.925781 126.289062 C 204.660156 126.082031 204.445312 125.835938 204.277344 125.542969 C 204.109375 125.253906 204.007812 124.941406 203.964844 124.609375 C 203.917969 124.277344 203.941406 123.949219 204.027344 123.625 C 204.113281 123.300781 204.261719 123.007812 204.464844 122.738281 C 204.667969 122.472656 204.917969 122.257812 205.207031 122.089844 C 205.496094 121.921875 205.808594 121.816406 206.140625 121.773438 C 206.472656 121.730469 206.800781 121.753906 207.125 121.839844 C 207.449219 121.929688 207.742188 122.074219 208.007812 122.28125 C 208.273438 122.484375 208.492188 122.730469 208.65625 123.023438 C 208.824219 123.3125 208.929688 123.625 208.972656 123.957031 Z M 208.972656 123.957031 " fill-opacity="1" fill-rule="nonzero"/></g></g></g><g clip-path="url(#id8)"><g clip-path="url(#id9)"><path fill="#ffbd59" d="M 145.636719 183.503906 C 149.292969 179.085938 147.28125 174.070312 143.117188 169.867188 C 148.699219 171.761719 154.097656 171.40625 156.480469 166.164062 C 158.886719 160.882812 154.542969 154.101562 147.835938 151.898438 C 143.125 150.351562 130.730469 149.640625 120.09375 155.46875 C 119.496094 167.605469 125.554688 178.402344 129.023438 181.976562 C 133.929688 187.0625 141.929688 188 145.636719 183.503906 Z M 145.636719 183.503906 " fill-opacity="1" fill-rule="nonzero"/></g></g><g clip-path="url(#id10)"><g clip-path="url(#id11)"><path fill="#ffbd59" d="M 173.394531 185.078125 C 178.324219 175.503906 171.421875 162.132812 157.980469 155.214844 C 144.542969 148.300781 129.652344 150.457031 124.722656 160.03125 C 119.796875 169.609375 126.695312 182.976562 140.136719 189.894531 C 153.578125 196.8125 168.46875 194.65625 173.394531 185.078125 " fill-opacity="1" fill-rule="nonzero"/></g></g><g fill="#ffbd59" fill-opacity="1"><g transform="translate(107.334452, 269.579322)"><g><path d="M 12.511719 0.75 C 18.125 0.75 23.398438 -1.878906 23.398438 -8.21875 C 23.398438 -13.847656 18.9375 -16.328125 14.910156 -18.4375 C 11.261719 -20.292969 8.175781 -21.710938 8.175781 -24.503906 C 8.175781 -26.777344 10.175781 -27.65625 12.660156 -27.65625 C 14.703125 -27.65625 17.101562 -27.089844 19.332031 -26.152344 C 19.832031 -25.945312 20.230469 -26.132812 20.4375 -26.632812 L 21.542969 -29.949219 C 21.753906 -30.449219 21.605469 -30.84375 21.085938 -31.054688 C 18.207031 -32.136719 15.078125 -32.785156 12.554688 -32.785156 C 7.175781 -32.785156 2.253906 -30.242188 2.253906 -24.089844 C 2.253906 -18.957031 5.921875 -16.519531 9.800781 -14.390625 C 13.742188 -12.261719 17.457031 -10.761719 17.457031 -7.925781 C 17.457031 -5.570312 15.433594 -4.359375 12.367188 -4.359375 C 10.175781 -4.359375 7.425781 -4.878906 4.339844 -6.320312 C 3.816406 -6.546875 3.421875 -6.421875 3.210938 -5.921875 L 1.917969 -2.460938 C 1.710938 -1.941406 1.855469 -1.5625 2.398438 -1.3125 C 6.339844 0.230469 9.449219 0.75 12.511719 0.75 Z M 12.511719 0.75 "/></g></g></g><g fill="#ffbd59" fill-opacity="1"><g transform="translate(132.418366, 269.579322)"><g><path d="M 5.527344 -24.214844 C 7.402344 -24.214844 8.800781 -25.632812 8.800781 -27.507812 C 8.800781 -29.363281 7.402344 -30.824219 5.527344 -30.824219 C 3.648438 -30.824219 2.230469 -29.363281 2.230469 -27.507812 C 2.230469 -25.632812 3.648438 -24.214844 5.527344 -24.214844 Z M 7.382812 0 C 7.945312 0 8.238281 -0.292969 8.238281 -0.855469 L 8.238281 -21.230469 C 8.238281 -21.773438 7.945312 -22.085938 7.382812 -22.085938 L 3.710938 -22.085938 C 3.171875 -22.085938 2.855469 -21.773438 2.855469 -21.230469 L 2.855469 -0.855469 C 2.855469 -0.292969 3.171875 0 3.710938 0 Z M 7.382812 0 "/></g></g></g><g fill="#ffbd59" fill-opacity="1"><g transform="translate(143.552872, 269.579322)"><g><path d="M 5.945312 -24.214844 C 7.820312 -24.214844 9.21875 -25.632812 9.21875 -27.507812 C 9.21875 -29.363281 7.820312 -30.824219 5.945312 -30.824219 C 4.066406 -30.824219 2.648438 -29.363281 2.648438 -27.507812 C 2.648438 -25.632812 4.066406 -24.214844 5.945312 -24.214844 Z M 1.710938 10.136719 C 5.796875 10.136719 8.65625 7.90625 8.65625 3.734375 L 8.65625 -21.230469 C 8.65625 -21.773438 8.34375 -22.085938 7.800781 -22.085938 L 4.128906 -22.085938 C 3.566406 -22.085938 3.273438 -21.773438 3.273438 -21.230469 L 3.273438 3.085938 C 3.273438 4.859375 2.417969 5.632812 1.0625 5.632812 C 0.667969 5.632812 0.144531 5.570312 -0.375 5.402344 C -0.9375 5.234375 -1.292969 5.421875 -1.480469 5.945312 L -2.191406 8.570312 C -2.378906 9.070312 -2.167969 9.488281 -1.667969 9.675781 C -0.480469 10.09375 0.667969 10.136719 1.710938 10.136719 Z M 1.710938 10.136719 "/></g></g></g><g fill="#ffbd59" fill-opacity="1"><g transform="translate(155.1044, 269.579322)"><g><path d="M 5.527344 -24.214844 C 7.402344 -24.214844 8.800781 -25.632812 8.800781 -27.507812 C 8.800781 -29.363281 7.402344 -30.824219 5.527344 -30.824219 C 3.648438 -30.824219 2.230469 -29.363281 2.230469 -27.507812 C 2.230469 -25.632812 3.648438 -24.214844 5.527344 -24.214844 Z M 7.382812 0 C 7.945312 0 8.238281 -0.292969 8.238281 -0.855469 L 8.238281 -21.230469 C 8.238281 -21.773438 7.945312 -22.085938 7.382812 -22.085938 L 3.710938 -22.085938 C 3.171875 -22.085938 2.855469 -21.773438 2.855469 -21.230469 L 2.855469 -0.855469 C 2.855469 -0.292969 3.171875 0 3.710938 0 Z M 7.382812 0 "/></g></g></g><g fill="#ffbd59" fill-opacity="1"><g transform="translate(166.238905, 269.579322)"><g><path d="M 11.242188 -22.546875 C 8.800781 -22.546875 6.171875 -22.085938 3.691406 -21.273438 C 3.171875 -21.085938 2.960938 -20.730469 3.148438 -20.1875 L 4.023438 -17.433594 C 4.191406 -16.894531 4.566406 -16.746094 5.109375 -16.933594 C 7.027344 -17.644531 9.03125 -18.101562 10.761719 -18.101562 C 13.347656 -18.101562 15.308594 -17.082031 15.308594 -14.222656 L 15.308594 -12.828125 C 13.722656 -13.222656 12.160156 -13.429688 10.679688 -13.429688 C 5.714844 -13.429688 1.855469 -11.054688 1.855469 -6.296875 C 1.855469 -1.710938 5.359375 0.480469 9.28125 0.480469 C 11.660156 0.480469 14.308594 -0.3125 16.078125 -2.710938 L 16.601562 -0.75 C 16.707031 -0.230469 17.039062 0 17.539062 0 L 19.832031 0 C 20.398438 0 20.6875 -0.292969 20.6875 -0.855469 L 20.6875 -14.453125 C 20.6875 -20.355469 16.433594 -22.546875 11.242188 -22.546875 Z M 10.574219 -3.441406 C 8.78125 -3.441406 7.238281 -4.359375 7.238281 -6.382812 C 7.238281 -8.71875 9.261719 -9.636719 11.929688 -9.636719 C 13.015625 -9.636719 14.140625 -9.488281 15.308594 -9.21875 L 15.308594 -8.28125 C 15.308594 -4.652344 12.554688 -3.441406 10.574219 -3.441406 Z M 10.574219 -3.441406 "/></g></g></g><g fill="#ffbd59" fill-opacity="1"><g transform="translate(189.592175, 269.579322)"><g/></g></g><g fill="#ffbd59" fill-opacity="1"><g transform="translate(202.394771, 269.579322)"><g><path d="M 18.769531 0.75 C 24.089844 0.75 28.613281 -1.25 31.554688 -4.691406 C 31.824219 -4.984375 31.929688 -5.277344 31.929688 -5.671875 L 31.929688 -14.660156 C 31.929688 -15.226562 31.636719 -15.515625 31.074219 -15.515625 L 19.542969 -15.515625 C 18.980469 -15.515625 18.6875 -15.226562 18.6875 -14.660156 L 18.6875 -11.40625 C 18.6875 -10.84375 18.980469 -10.554688 19.542969 -10.554688 L 26.507812 -10.554688 L 26.507812 -7.527344 C 24.566406 -5.632812 21.855469 -4.484375 18.769531 -4.484375 C 12.492188 -4.484375 7.714844 -9.09375 7.714844 -16.015625 C 7.714844 -22.835938 12.472656 -27.34375 18.769531 -27.34375 C 21.960938 -27.34375 24.714844 -26.113281 26.675781 -24.128906 C 27.050781 -23.753906 27.445312 -23.714844 27.863281 -24.046875 L 31.242188 -26.425781 C 31.699219 -26.777344 31.742188 -27.195312 31.347656 -27.59375 C 28.34375 -30.84375 23.941406 -32.785156 18.769531 -32.785156 C 9.03125 -32.785156 1.835938 -26.007812 1.835938 -16.015625 C 1.835938 -6.007812 9.03125 0.75 18.769531 0.75 Z M 18.769531 0.75 "/></g></g></g><g fill="#ffbd59" fill-opacity="1"><g transform="translate(236.507226, 269.579322)"><g><path d="M 12.953125 -22.546875 C 6.652344 -22.546875 1.898438 -18.019531 1.898438 -11.03125 C 1.898438 -3.960938 6.988281 0.480469 13.179688 0.480469 C 16.539062 0.480469 19.8125 -0.9375 22.273438 -3.523438 C 22.710938 -3.960938 22.710938 -4.378906 22.292969 -4.691406 L 20.25 -6.945312 C 19.855469 -7.257812 19.542969 -7.238281 19.144531 -6.863281 C 17.496094 -5.171875 15.371094 -4.277344 13.328125 -4.277344 C 10.113281 -4.277344 7.300781 -6.421875 7.152344 -10.28125 L 22.859375 -10.28125 C 23.460938 -10.28125 23.777344 -10.492188 23.777344 -11.242188 C 23.777344 -18.019531 19.25 -22.546875 12.953125 -22.546875 Z M 13.054688 -18.101562 C 15.328125 -18.101562 17.539062 -16.871094 18.1875 -14.058594 L 7.527344 -14.058594 C 8.320312 -16.894531 10.84375 -18.101562 13.054688 -18.101562 Z M 13.054688 -18.101562 "/></g></g></g><g fill="#ffffff" fill-opacity="1"><g transform="translate(140.45405, 301.413077)"><g><path d="M 12.660156 -0.125 C 13.253906 -0.125 13.78125 -0.65625 14.1875 -1.746094 C 14.59375 -2.804688 15.03125 -4.398438 15.527344 -6.484375 L 15.777344 -7.421875 C 16.058594 -8.417969 16.308594 -9.324219 16.527344 -10.132812 C 16.839844 -11.007812 17.058594 -11.539062 17.179688 -11.691406 C 17.273438 -11.476562 17.335938 -11.164062 17.398438 -10.789062 C 17.460938 -10.382812 17.523438 -10.007812 17.585938 -9.636719 C 17.617188 -9.605469 17.617188 -9.542969 17.617188 -9.511719 C 17.773438 -8.261719 18.054688 -7.046875 18.429688 -5.894531 C 18.804688 -4.707031 19.457031 -3.960938 20.363281 -3.617188 C 20.519531 -3.585938 20.671875 -3.554688 20.828125 -3.554688 C 21.359375 -3.554688 21.921875 -3.742188 22.480469 -4.148438 C 23.011719 -4.519531 23.574219 -4.988281 24.105469 -5.550781 C 24.632812 -6.082031 25.101562 -6.609375 25.570312 -7.140625 C 25.664062 -7.234375 25.726562 -7.359375 25.726562 -7.515625 C 25.726562 -7.671875 25.664062 -7.796875 25.507812 -7.953125 C 25.382812 -8.046875 25.257812 -8.105469 25.132812 -8.105469 C 24.976562 -8.105469 24.820312 -8.046875 24.664062 -7.890625 C 24.136719 -7.265625 23.511719 -6.578125 22.761719 -5.863281 C 22.015625 -5.113281 21.390625 -4.738281 20.859375 -4.738281 L 20.671875 -4.769531 C 20.144531 -4.988281 19.738281 -5.582031 19.457031 -6.578125 C 19.175781 -7.578125 18.957031 -8.574219 18.804688 -9.542969 C 18.773438 -9.574219 18.773438 -9.636719 18.773438 -9.699219 C 18.617188 -10.726562 18.460938 -11.539062 18.273438 -12.128906 C 18.085938 -12.722656 17.773438 -13.003906 17.304688 -13.035156 L 17.242188 -13.035156 C 16.652344 -13.035156 16.152344 -12.503906 15.746094 -11.445312 C 15.339844 -10.382812 14.90625 -8.824219 14.40625 -6.765625 C 14.34375 -6.546875 14.28125 -6.359375 14.25 -6.175781 C 13.96875 -5.019531 13.65625 -3.960938 13.378906 -3.054688 C 13.222656 -2.527344 13.066406 -2.152344 12.941406 -1.902344 C 12.816406 -1.621094 12.722656 -1.464844 12.660156 -1.371094 C 12.597656 -1.464844 12.503906 -1.683594 12.410156 -2.027344 C 12.285156 -2.371094 12.160156 -2.867188 12.003906 -3.554688 C 11.753906 -4.707031 11.507812 -6.050781 11.289062 -7.515625 L 11.164062 -8.324219 C 10.726562 -11.414062 10.320312 -13.6875 9.914062 -15.09375 C 9.511719 -16.496094 8.949219 -17.179688 8.261719 -17.179688 L 8.230469 -17.179688 C 7.515625 -17.179688 6.921875 -16.496094 6.453125 -15.09375 C 5.957031 -13.6875 5.394531 -11.601562 4.769531 -8.886719 C 4.644531 -8.417969 4.519531 -7.953125 4.429688 -7.484375 C 4.085938 -6.082031 3.742188 -4.832031 3.398438 -3.679688 C 3.179688 -3.085938 3.023438 -2.621094 2.867188 -2.277344 C 2.710938 -1.933594 2.621094 -1.714844 2.527344 -1.558594 C 2.433594 -1.402344 2.339844 -1.339844 2.308594 -1.308594 C 2.277344 -1.339844 2.183594 -1.433594 2.089844 -1.621094 C 1.996094 -1.777344 1.871094 -2.089844 1.714844 -2.527344 C 1.558594 -2.929688 1.402344 -3.554688 1.246094 -4.335938 C 1.058594 -5.113281 0.875 -6.113281 0.6875 -7.390625 C 0.65625 -7.546875 0.5625 -7.671875 0.46875 -7.765625 C 0.375 -7.859375 0.25 -7.890625 0.09375 -7.890625 L 0.03125 -7.890625 C -0.3125 -7.796875 -0.46875 -7.609375 -0.46875 -7.328125 L -0.46875 -7.234375 C -0.15625 -5.207031 0.15625 -3.679688 0.46875 -2.652344 C 0.75 -1.621094 1.058594 -0.964844 1.371094 -0.625 C 1.652344 -0.28125 1.964844 -0.09375 2.277344 -0.125 L 2.308594 -0.125 C 3.054688 -0.125 3.679688 -0.875 4.210938 -2.339844 C 4.707031 -3.804688 5.269531 -5.925781 5.894531 -8.636719 C 5.957031 -8.855469 6.019531 -9.105469 6.082031 -9.355469 C 6.453125 -10.945312 6.828125 -12.410156 7.203125 -13.6875 C 7.484375 -14.53125 7.703125 -15.09375 7.859375 -15.433594 C 8.015625 -15.746094 8.136719 -15.933594 8.230469 -15.964844 C 8.292969 -15.902344 8.386719 -15.683594 8.542969 -15.339844 C 8.699219 -15 8.886719 -14.375 9.105469 -13.472656 C 9.417969 -11.878906 9.730469 -10.132812 10.007812 -8.167969 C 10.445312 -5.269531 10.851562 -3.210938 11.195312 -1.996094 C 11.539062 -0.75 12.003906 -0.125 12.628906 -0.125 Z M 12.660156 -0.125 "/></g></g></g><g fill="#ffffff" fill-opacity="1"><g transform="translate(165.553898, 301.413077)"><g><path d="M 5.050781 0 C 6.421875 0 7.859375 -0.902344 9.136719 -2.589844 C 9.855469 -3.523438 10.476562 -4.644531 10.914062 -5.769531 C 12.253906 -5.832031 13.59375 -6.238281 14.5625 -7.078125 C 14.6875 -7.203125 14.78125 -7.359375 14.78125 -7.546875 C 14.78125 -7.671875 14.71875 -7.796875 14.625 -7.921875 C 14.5 -8.046875 14.34375 -8.105469 14.1875 -8.105469 C 14.03125 -8.105469 13.90625 -8.078125 13.78125 -7.984375 C 13.128906 -7.390625 12.191406 -7.046875 11.257812 -6.953125 C 11.382812 -7.484375 11.445312 -8.015625 11.445312 -8.511719 C 11.445312 -9.261719 11.289062 -9.914062 10.945312 -10.445312 C 10.726562 -10.757812 10.476562 -11.007812 10.195312 -11.226562 C 10.226562 -11.507812 10.257812 -11.785156 10.257812 -12.066406 C 10.257812 -13.316406 9.882812 -14.4375 9.261719 -15.21875 C 8.542969 -16.121094 7.453125 -16.621094 6.175781 -16.621094 C 4.367188 -16.621094 2.433594 -15.652344 1.277344 -14.15625 C 0.0625 -12.597656 -0.5625 -10.632812 -0.5625 -8.574219 C -0.5625 -7.515625 -0.375 -6.421875 -0.0625 -5.363281 C 0.71875 -2.773438 2.308594 -0.78125 4.117188 -0.15625 C 4.429688 -0.0625 4.738281 0 5.050781 0 Z M 5.082031 -1.183594 C 4.863281 -1.183594 4.675781 -1.214844 4.492188 -1.277344 C 3.054688 -1.746094 1.714844 -3.492188 1.058594 -5.707031 C 0.75 -6.671875 0.625 -7.640625 0.625 -8.574219 C 0.625 -10.382812 1.152344 -12.097656 2.183594 -13.410156 C 3.148438 -14.65625 4.707031 -15.433594 6.175781 -15.433594 C 6.828125 -15.433594 7.734375 -15.277344 8.324219 -14.5 C 8.792969 -13.875 9.074219 -13.003906 9.074219 -12.035156 L 9.074219 -11.722656 C 8.855469 -11.753906 8.667969 -11.785156 8.449219 -11.785156 L 8.199219 -11.785156 C 7.234375 -11.691406 6.421875 -11.101562 6.019531 -10.164062 C 5.863281 -9.761719 5.769531 -9.386719 5.769531 -8.980469 C 5.769531 -8.136719 6.207031 -7.359375 7.046875 -6.765625 C 7.703125 -6.269531 8.636719 -5.957031 9.667969 -5.832031 C 9.292969 -4.957031 8.824219 -4.085938 8.199219 -3.304688 C 7.171875 -1.933594 6.050781 -1.183594 5.082031 -1.183594 Z M 7.453125 -7.921875 C 7.109375 -8.230469 6.953125 -8.605469 6.953125 -9.011719 C 6.953125 -9.230469 7.015625 -9.480469 7.109375 -9.730469 C 7.328125 -10.226562 7.765625 -10.570312 8.324219 -10.632812 L 8.480469 -10.632812 C 8.605469 -10.632812 8.730469 -10.601562 8.855469 -10.570312 C 8.636719 -9.824219 8.230469 -9.042969 7.578125 -8.324219 C 7.484375 -8.199219 7.453125 -8.078125 7.453125 -7.921875 Z M 10.039062 -6.953125 C 9.386719 -6.984375 8.792969 -7.140625 8.261719 -7.390625 C 8.355469 -7.421875 8.417969 -7.484375 8.480469 -7.546875 C 9.136719 -8.292969 9.605469 -9.105469 9.882812 -9.914062 L 9.945312 -9.792969 C 10.164062 -9.480469 10.257812 -9.011719 10.257812 -8.511719 C 10.257812 -8.046875 10.195312 -7.515625 10.039062 -6.953125 Z M 10.039062 -6.953125 "/></g></g></g><g fill="#ffffff" fill-opacity="1"><g transform="translate(179.647226, 301.413077)"><g><path d="M 7.328125 -0.28125 C 9.976562 -0.28125 13.90625 -1.339844 16.589844 -3.867188 C 17.429688 -4.644531 18.273438 -5.582031 19.050781 -6.640625 C 19.769531 -5.394531 20.488281 -4.335938 21.171875 -3.804688 C 21.953125 -3.179688 22.792969 -2.898438 23.699219 -2.898438 C 23.886719 -2.898438 24.074219 -2.898438 24.257812 -2.929688 C 26.066406 -3.148438 28 -4.644531 30.027344 -7.296875 C 30.089844 -7.390625 30.152344 -7.515625 30.152344 -7.640625 C 30.152344 -7.828125 30.058594 -7.984375 29.902344 -8.105469 C 29.808594 -8.167969 29.683594 -8.199219 29.59375 -8.199219 C 29.40625 -8.199219 29.25 -8.136719 29.125 -7.984375 C 27.316406 -5.613281 25.570312 -4.273438 24.105469 -4.054688 L 23.730469 -4.023438 C 23.074219 -4.023438 22.480469 -4.273438 21.890625 -4.707031 C 21.265625 -5.175781 20.550781 -6.238281 19.800781 -7.640625 C 22.078125 -10.820312 24.042969 -14.78125 25.257812 -18.679688 C 26.128906 -21.546875 26.597656 -24.230469 26.597656 -26.660156 C 26.597656 -30.027344 25.726562 -32.867188 24.074219 -35.019531 C 22.636719 -36.855469 20.828125 -37.855469 19.050781 -37.855469 C 18.523438 -37.855469 17.992188 -37.792969 17.492188 -37.605469 C 14.5 -36.546875 12.753906 -32.648438 12.753906 -27.097656 L 12.753906 -26.660156 C 12.785156 -24.320312 14 -19.394531 15.746094 -14.40625 L 15.808594 -14.25 L 15.464844 -14.59375 C 13.90625 -16.027344 12.097656 -16.746094 9.792969 -16.746094 L 9.355469 -16.746094 C 3.492188 -16.558594 -0.0625 -12.191406 -0.40625 -8.167969 L -0.4375 -7.484375 C -0.4375 -5.957031 0 -4.550781 0.875 -3.367188 C 1.996094 -1.902344 3.710938 -0.875 5.894531 -0.40625 C 6.296875 -0.34375 6.796875 -0.28125 7.328125 -0.28125 Z M 7.328125 -1.464844 C 6.859375 -1.464844 6.453125 -1.496094 6.144531 -1.558594 C 2.121094 -2.402344 0.71875 -5.113281 0.71875 -7.515625 L 0.75 -8.078125 C 1.058594 -11.601562 4.179688 -15.433594 9.386719 -15.589844 L 9.730469 -15.589844 C 13.75 -15.589844 15.808594 -13.285156 18.023438 -8.730469 C 18.117188 -8.480469 18.242188 -8.230469 18.367188 -7.984375 L 18.460938 -7.765625 C 17.617188 -6.609375 16.714844 -5.550781 15.808594 -4.707031 C 13.222656 -2.277344 9.511719 -1.464844 7.328125 -1.464844 Z M 19.238281 -8.824219 C 19.144531 -9.042969 19.050781 -9.261719 18.925781 -9.449219 C 16.433594 -15 13.96875 -23.480469 13.90625 -26.691406 L 13.90625 -27.160156 C 13.90625 -32.148438 15.371094 -35.640625 17.898438 -36.515625 C 18.273438 -36.640625 18.679688 -36.703125 19.050781 -36.703125 C 20.488281 -36.703125 21.953125 -35.859375 23.167969 -34.300781 C 24.851562 -32.148438 25.414062 -29.40625 25.414062 -26.753906 C 25.414062 -23.824219 24.726562 -20.984375 24.136719 -19.019531 C 23.042969 -15.433594 21.265625 -11.816406 19.238281 -8.824219 Z M 19.238281 -8.824219 "/></g></g></g><g fill="#ffffff" fill-opacity="1"><g transform="translate(209.112267, 301.413077)"><g><path d="M 8.417969 0.0625 C 11.507812 0.0625 15.0625 -1.683594 18.523438 -7.203125 C 18.585938 -7.296875 18.585938 -7.390625 18.585938 -7.484375 C 18.585938 -7.703125 18.492188 -7.890625 18.335938 -8.015625 C 18.242188 -8.078125 18.117188 -8.105469 18.023438 -8.105469 C 17.804688 -8.105469 17.617188 -8.015625 17.523438 -7.828125 C 14.71875 -3.367188 11.664062 -1.121094 8.417969 -1.121094 C 7.015625 -1.121094 5.582031 -1.527344 4.117188 -2.371094 C 2.589844 -3.210938 1.308594 -4.988281 0.75 -7.015625 C 1.746094 -6.734375 2.773438 -6.578125 3.773438 -6.578125 C 4.613281 -6.578125 5.457031 -6.703125 6.269531 -6.890625 C 8.136719 -7.359375 9.730469 -8.324219 10.757812 -9.636719 C 11.445312 -10.539062 11.785156 -11.507812 11.785156 -12.410156 C 11.785156 -13.222656 11.539062 -14 11.039062 -14.6875 C 9.914062 -16.277344 8.292969 -17.148438 6.515625 -17.148438 L 6.238281 -17.148438 C 3.929688 -17.027344 1.683594 -15.496094 0.28125 -13.035156 C -0.40625 -11.878906 -0.75 -10.570312 -0.75 -9.167969 L -0.6875 -8.199219 L -0.71875 -8.136719 L -0.75 -7.921875 C -0.75 -7.765625 -0.6875 -7.609375 -0.59375 -7.515625 L -0.40625 -6.796875 C 0.21875 -4.429688 1.746094 -2.339844 3.523438 -1.339844 C 4.925781 -0.53125 6.609375 0.0625 8.417969 0.0625 Z M 3.804688 -7.765625 C 2.773438 -7.765625 1.652344 -7.921875 0.5 -8.324219 L 0.4375 -9.230469 C 0.4375 -10.382812 0.71875 -11.507812 1.277344 -12.441406 C 2.496094 -14.5625 4.398438 -15.871094 6.296875 -15.964844 L 6.546875 -15.964844 C 7.953125 -15.964844 9.199219 -15.277344 10.101562 -14 C 10.445312 -13.53125 10.632812 -13.003906 10.632812 -12.441406 C 10.632812 -11.753906 10.351562 -11.039062 9.824219 -10.351562 C 8.667969 -8.855469 6.453125 -7.765625 3.804688 -7.765625 Z M 3.804688 -7.765625 "/></g></g></g><g fill="#ffffff" fill-opacity="1"><g transform="translate(227.040728, 301.413077)"><g><path d="M 1.464844 3.679688 C 2.589844 3.492188 4.644531 0.6875 8.542969 -5.113281 C 8.949219 -5.925781 10.039062 -6.890625 10.039062 -7.578125 C 10.039062 -7.734375 9.976562 -7.890625 9.824219 -8.015625 C 9.730469 -8.078125 9.636719 -8.105469 9.542969 -8.105469 C 8.792969 -8.105469 8.230469 -6.484375 7.609375 -5.769531 C 6.238281 -3.742188 2.960938 1.214844 1.496094 2.402344 C 2.058594 -0.25 5.488281 -4.863281 5.488281 -7.203125 C 5.488281 -8.078125 4.988281 -8.636719 3.679688 -8.636719 C 3.023438 -8.636719 2.183594 -8.511719 1.121094 -8.230469 C 2.558594 -10.101562 3.835938 -11.910156 3.835938 -13.625 C 3.835938 -14.375 3.617188 -15.0625 3.085938 -15.746094 C 2.558594 -16.183594 1.902344 -16.371094 1.214844 -16.371094 C -1.246094 -16.371094 -4.179688 -14.03125 -4.179688 -11.351562 C -4.179688 -10.882812 -4.117188 -10.445312 -3.929688 -9.976562 C -3.054688 -7.578125 -1.777344 -6.984375 -0.375 -6.984375 C 0.875 -6.984375 2.183594 -7.453125 3.398438 -7.453125 C 3.710938 -7.453125 4.023438 -7.421875 4.335938 -7.328125 C 4.367188 -7.265625 4.367188 -7.171875 4.367188 -7.046875 C 4.367188 -5.988281 2.992188 -3.617188 2.402344 -2.464844 C 1.371094 -0.53125 0.3125 1.308594 0.3125 2.496094 C 0.3125 3.117188 0.625 3.554688 1.464844 3.679688 Z M -0.53125 -8.136719 C -1.496094 -8.230469 -2.339844 -8.792969 -2.867188 -10.351562 C -2.960938 -10.695312 -2.992188 -11.007812 -2.992188 -11.289062 C -2.992188 -13.65625 -0.53125 -15.21875 1.152344 -15.21875 C 2.058594 -15.21875 2.742188 -14.78125 2.742188 -13.78125 C 2.742188 -12.660156 1.871094 -10.820312 -0.53125 -8.136719 Z M -0.53125 -8.136719 "/></g></g></g><g fill="#ffffff" fill-opacity="1"><g transform="translate(236.55061, 301.413077)"><g><path d="M 1.433594 -0.15625 C 2.183594 -0.15625 2.589844 -1.152344 2.960938 -2.277344 C 3.335938 -3.398438 3.742188 -4.957031 4.179688 -6.578125 C 4.769531 -8.792969 5.425781 -11.289062 6.144531 -13.160156 C 7.171875 -15.933594 7.796875 -15.933594 7.828125 -15.933594 C 9.605469 -15.808594 9.667969 -12.503906 9.730469 -9.324219 C 9.761719 -7.609375 9.824219 -5.863281 10.132812 -4.519531 C 10.507812 -2.804688 11.351562 -1.933594 12.597656 -1.871094 L 12.660156 -1.871094 C 14.3125 -1.871094 15.464844 -3.898438 16.527344 -5.863281 C 16.808594 -6.328125 17.058594 -6.828125 17.335938 -7.265625 C 17.398438 -7.359375 17.398438 -7.453125 17.398438 -7.546875 C 17.398438 -7.765625 17.304688 -7.953125 17.117188 -8.078125 C 17.027344 -8.136719 16.933594 -8.136719 16.839844 -8.136719 C 16.621094 -8.136719 16.433594 -8.046875 16.339844 -7.859375 C 16.058594 -7.421875 15.777344 -6.921875 15.496094 -6.421875 C 14.625 -4.863281 13.65625 -3.054688 12.722656 -3.054688 L 12.660156 -3.054688 C 11.039062 -3.117188 10.976562 -6.269531 10.914062 -9.355469 C 10.882812 -11.101562 10.851562 -12.910156 10.507812 -14.3125 C 10.070312 -16.089844 9.199219 -17.027344 7.890625 -17.085938 L 7.796875 -17.085938 C 5.925781 -17.085938 4.707031 -13.035156 3.054688 -6.890625 C 2.527344 -4.894531 1.871094 -2.464844 1.433594 -1.589844 C 1.214844 -2.121094 0.964844 -3.617188 0.964844 -7.578125 C 0.964844 -7.890625 0.6875 -8.136719 0.375 -8.136719 C 0.0625 -8.136719 -0.21875 -7.890625 -0.21875 -7.578125 C -0.1875 -5.269531 -0.125 -3.585938 0.03125 -2.464844 C 0.1875 -1.402344 0.46875 -0.3125 1.308594 -0.15625 Z M 1.433594 -0.15625 "/></g></g></g><g fill="#ffffff" fill-opacity="1"><g transform="translate(169.710446, 330.957997)"><g><path d="M 12.410156 -8.417969 C 12.441406 -9.199219 12.566406 -9.945312 12.785156 -10.632812 C 13.066406 -11.382812 13.378906 -12.003906 13.65625 -12.503906 C 13.441406 -11.445312 13.003906 -10.070312 12.410156 -8.417969 Z M 16.652344 -7.984375 C 16.246094 -7.328125 15.777344 -6.703125 15.308594 -6.113281 C 14.8125 -5.488281 14.34375 -5.144531 13.84375 -5.082031 L 13.5625 -5.082031 C 13.472656 -5.113281 13.378906 -5.144531 13.316406 -5.238281 C 13.222656 -5.332031 13.160156 -5.394531 13.097656 -5.488281 L 13.035156 -5.550781 L 12.816406 -5.988281 C 13.378906 -7.296875 13.84375 -8.511719 14.1875 -9.636719 C 14.75 -11.476562 15.03125 -12.722656 15.03125 -13.378906 L 15 -13.75 C 14.96875 -13.9375 14.9375 -14.09375 14.90625 -14.1875 C 14.84375 -14.28125 14.78125 -14.34375 14.71875 -14.375 L 14.6875 -14.40625 C 14.53125 -14.5 14.375 -14.5625 14.15625 -14.5625 L 13.9375 -14.5625 C 13.410156 -14.34375 12.941406 -13.84375 12.503906 -13.066406 C 12.066406 -12.285156 11.753906 -11.570312 11.539062 -10.976562 C 11.257812 -10.070312 11.132812 -9.136719 11.132812 -8.167969 C 11.132812 -7.796875 11.164062 -7.421875 11.195312 -7.046875 C 11.257812 -6.671875 11.320312 -6.328125 11.414062 -6.019531 C 11.101562 -5.300781 10.757812 -4.644531 10.382812 -4.054688 C 10.070312 -3.523438 9.824219 -3.179688 9.636719 -2.992188 C 9.449219 -2.773438 9.324219 -2.652344 9.261719 -2.621094 C 9.230469 -2.652344 9.136719 -2.804688 9.042969 -3.085938 C 8.949219 -3.367188 8.824219 -3.835938 8.730469 -4.519531 C 8.667969 -4.863281 8.605469 -5.300781 8.574219 -5.800781 C 8.542969 -6.484375 8.511719 -7.203125 8.511719 -7.953125 C 8.511719 -9.042969 8.542969 -10.132812 8.574219 -11.226562 C 8.605469 -11.445312 8.605469 -11.632812 8.605469 -11.816406 L 8.636719 -14.6875 L 8.574219 -15.558594 C 8.542969 -16.058594 8.324219 -16.371094 7.890625 -16.464844 L 7.640625 -16.464844 C 7.109375 -16.339844 6.703125 -15.589844 6.390625 -14.25 C 6.207031 -13.625 5.988281 -12.878906 5.769531 -12.035156 C 5.582031 -11.351562 5.394531 -10.632812 5.175781 -9.914062 C 4.582031 -7.546875 3.992188 -5.269531 3.335938 -3.117188 C 2.960938 -1.964844 2.652344 -1.152344 2.433594 -0.65625 C 2.183594 -0.125 1.996094 0.1875 1.871094 0.34375 C 1.746094 0.1875 1.621094 -0.40625 1.464844 -1.433594 C 1.371094 -1.964844 1.308594 -2.683594 1.277344 -3.585938 C 1.246094 -4.367188 1.214844 -5.238281 1.214844 -6.207031 C 1.214844 -8.480469 1.308594 -11.320312 1.496094 -14.71875 L 1.496094 -14.8125 C 1.402344 -15.15625 1.183594 -15.308594 0.8125 -15.308594 C 0.65625 -15.277344 0.5 -15.21875 0.40625 -15.125 C 0.28125 -15.03125 0.21875 -14.875 0.1875 -14.71875 C 0.03125 -11.507812 -0.0625 -8.792969 -0.0625 -6.546875 C -0.0625 -5.144531 -0.03125 -3.960938 0.03125 -2.929688 C 0.0625 -2.652344 0.0625 -2.402344 0.09375 -2.183594 C 0.125 -1.808594 0.15625 -1.464844 0.1875 -1.152344 C 0.40625 0.6875 0.933594 1.621094 1.777344 1.652344 L 1.964844 1.652344 C 2.621094 1.621094 3.304688 0.75 3.960938 -0.964844 C 4.613281 -2.683594 5.457031 -5.582031 6.484375 -9.667969 L 7.296875 -12.847656 L 7.296875 -12.535156 L 7.265625 -11.847656 L 7.203125 -8.636719 C 7.203125 -6.828125 7.265625 -5.394531 7.421875 -4.304688 C 7.609375 -2.652344 8.105469 -1.714844 8.886719 -1.496094 L 9.167969 -1.433594 L 9.386719 -1.464844 C 9.824219 -1.527344 10.226562 -1.746094 10.570312 -2.152344 C 10.914062 -2.527344 11.226562 -2.929688 11.476562 -3.367188 C 11.507812 -3.429688 11.539062 -3.492188 11.570312 -3.554688 C 11.785156 -3.867188 11.972656 -4.210938 12.160156 -4.613281 C 12.566406 -4.210938 12.941406 -3.992188 13.285156 -3.960938 L 13.71875 -3.898438 L 14.03125 -3.929688 C 14.84375 -4.054688 15.589844 -4.519531 16.246094 -5.332031 C 16.402344 -5.519531 16.558594 -5.738281 16.714844 -5.957031 C 17.085938 -6.390625 17.429688 -6.859375 17.773438 -7.359375 C 17.835938 -7.453125 17.867188 -7.515625 17.867188 -7.578125 L 17.867188 -7.671875 C 17.867188 -7.890625 17.773438 -8.078125 17.554688 -8.167969 L 17.210938 -8.230469 C 16.996094 -8.230469 16.808594 -8.136719 16.652344 -7.984375 Z M 16.652344 -7.984375 "/></g></g></g><g fill="#ffffff" fill-opacity="1"><g transform="translate(186.82823, 330.957997)"><g><path d="M 8.417969 0.0625 C 11.507812 0.0625 15.0625 -1.683594 18.523438 -7.203125 C 18.585938 -7.296875 18.585938 -7.390625 18.585938 -7.484375 C 18.585938 -7.703125 18.492188 -7.890625 18.335938 -8.015625 C 18.242188 -8.078125 18.117188 -8.105469 18.023438 -8.105469 C 17.804688 -8.105469 17.617188 -8.015625 17.523438 -7.828125 C 14.71875 -3.367188 11.664062 -1.121094 8.417969 -1.121094 C 7.015625 -1.121094 5.582031 -1.527344 4.117188 -2.371094 C 2.589844 -3.210938 1.308594 -4.988281 0.75 -7.015625 C 1.746094 -6.734375 2.773438 -6.578125 3.773438 -6.578125 C 4.613281 -6.578125 5.457031 -6.703125 6.269531 -6.890625 C 8.136719 -7.359375 9.730469 -8.324219 10.757812 -9.636719 C 11.445312 -10.539062 11.785156 -11.507812 11.785156 -12.410156 C 11.785156 -13.222656 11.539062 -14 11.039062 -14.6875 C 9.914062 -16.277344 8.292969 -17.148438 6.515625 -17.148438 L 6.238281 -17.148438 C 3.929688 -17.027344 1.683594 -15.496094 0.28125 -13.035156 C -0.40625 -11.878906 -0.75 -10.570312 -0.75 -9.167969 L -0.6875 -8.199219 L -0.71875 -8.136719 L -0.75 -7.921875 C -0.75 -7.765625 -0.6875 -7.609375 -0.59375 -7.515625 L -0.40625 -6.796875 C 0.21875 -4.429688 1.746094 -2.339844 3.523438 -1.339844 C 4.925781 -0.53125 6.609375 0.0625 8.417969 0.0625 Z M 3.804688 -7.765625 C 2.773438 -7.765625 1.652344 -7.921875 0.5 -8.324219 L 0.4375 -9.230469 C 0.4375 -10.382812 0.71875 -11.507812 1.277344 -12.441406 C 2.496094 -14.5625 4.398438 -15.871094 6.296875 -15.964844 L 6.546875 -15.964844 C 7.953125 -15.964844 9.199219 -15.277344 10.101562 -14 C 10.445312 -13.53125 10.632812 -13.003906 10.632812 -12.441406 C 10.632812 -11.753906 10.351562 -11.039062 9.824219 -10.351562 C 8.667969 -8.855469 6.453125 -7.765625 3.804688 -7.765625 Z M 3.804688 -7.765625 "/></g></g></g><g fill="#ffffff" fill-opacity="1"><g transform="translate(204.756691, 330.957997)"><g><path d="M 1.683594 1.339844 C 2.621094 1.339844 2.898438 0.09375 3.898438 -3.273438 C 5.113281 -7.890625 7.265625 -15.621094 10.851562 -15.996094 L 11.101562 -15.996094 C 13.59375 -15.996094 17.210938 -12.472656 17.210938 -8.855469 C 17.210938 -7.296875 16.558594 -5.738281 14.84375 -4.429688 C 13.035156 -3.054688 10.476562 -2.339844 7.578125 -2.339844 C 6.578125 -2.339844 5.550781 -2.433594 4.519531 -2.589844 L 4.398438 -2.621094 C 4.117188 -2.621094 3.898438 -2.433594 3.835938 -2.089844 L 3.835938 -1.996094 C 3.835938 -1.746094 4.054688 -1.496094 4.335938 -1.433594 C 5.457031 -1.246094 6.546875 -1.152344 7.609375 -1.152344 C 10.757812 -1.152344 13.5625 -1.933594 15.558594 -3.460938 C 17.617188 -4.988281 18.429688 -6.890625 18.429688 -8.792969 C 18.429688 -13.003906 14.34375 -17.179688 11.101562 -17.179688 L 10.726562 -17.148438 C 4.988281 -16.527344 3.023438 -3.335938 1.683594 -0.125 C 0.996094 -1.683594 0.84375 -6.640625 0.875 -7.453125 C 5.050781 -14.6875 7.671875 -24.074219 7.671875 -31.835938 C 7.671875 -35.515625 6.828125 -38.042969 4.675781 -38.042969 L 4.398438 -38.042969 C 3.335938 -37.917969 2.558594 -36.703125 1.808594 -33.925781 C 0.3125 -28.3125 -0.40625 -17.960938 -0.40625 -10.195312 C -0.40625 -8.355469 -0.375 -6.640625 -0.28125 -5.175781 C 0.03125 0.46875 0.8125 1.339844 1.683594 1.339844 Z M 0.75 -9.480469 L 0.75 -10.320312 C 0.75 -17.179688 1.464844 -28.9375 3.210938 -34.550781 C 3.898438 -36.765625 4.460938 -36.886719 4.519531 -36.886719 L 4.613281 -36.886719 C 5.957031 -36.886719 6.515625 -34.957031 6.515625 -32.117188 C 6.515625 -25.757812 3.773438 -14.71875 0.75 -9.480469 Z M 0.75 -9.480469 "/></g></g></g><g fill="#ffffff" fill-opacity="1"><g transform="translate(124.469787, 360.502918)"><g><path d="M 7.328125 -0.28125 C 9.976562 -0.28125 13.90625 -1.339844 16.589844 -3.867188 C 17.429688 -4.644531 18.273438 -5.582031 19.050781 -6.640625 C 19.769531 -5.394531 20.488281 -4.335938 21.171875 -3.804688 C 21.953125 -3.179688 22.792969 -2.898438 23.699219 -2.898438 C 23.886719 -2.898438 24.074219 -2.898438 24.257812 -2.929688 C 26.066406 -3.148438 28 -4.644531 30.027344 -7.296875 C 30.089844 -7.390625 30.152344 -7.515625 30.152344 -7.640625 C 30.152344 -7.828125 30.058594 -7.984375 29.902344 -8.105469 C 29.808594 -8.167969 29.683594 -8.199219 29.59375 -8.199219 C 29.40625 -8.199219 29.25 -8.136719 29.125 -7.984375 C 27.316406 -5.613281 25.570312 -4.273438 24.105469 -4.054688 L 23.730469 -4.023438 C 23.074219 -4.023438 22.480469 -4.273438 21.890625 -4.707031 C 21.265625 -5.175781 20.550781 -6.238281 19.800781 -7.640625 C 22.078125 -10.820312 24.042969 -14.78125 25.257812 -18.679688 C 26.128906 -21.546875 26.597656 -24.230469 26.597656 -26.660156 C 26.597656 -30.027344 25.726562 -32.867188 24.074219 -35.019531 C 22.636719 -36.855469 20.828125 -37.855469 19.050781 -37.855469 C 18.523438 -37.855469 17.992188 -37.792969 17.492188 -37.605469 C 14.5 -36.546875 12.753906 -32.648438 12.753906 -27.097656 L 12.753906 -26.660156 C 12.785156 -24.320312 14 -19.394531 15.746094 -14.40625 L 15.808594 -14.25 L 15.464844 -14.59375 C 13.90625 -16.027344 12.097656 -16.746094 9.792969 -16.746094 L 9.355469 -16.746094 C 3.492188 -16.558594 -0.0625 -12.191406 -0.40625 -8.167969 L -0.4375 -7.484375 C -0.4375 -5.957031 0 -4.550781 0.875 -3.367188 C 1.996094 -1.902344 3.710938 -0.875 5.894531 -0.40625 C 6.296875 -0.34375 6.796875 -0.28125 7.328125 -0.28125 Z M 7.328125 -1.464844 C 6.859375 -1.464844 6.453125 -1.496094 6.144531 -1.558594 C 2.121094 -2.402344 0.71875 -5.113281 0.71875 -7.515625 L 0.75 -8.078125 C 1.058594 -11.601562 4.179688 -15.433594 9.386719 -15.589844 L 9.730469 -15.589844 C 13.75 -15.589844 15.808594 -13.285156 18.023438 -8.730469 C 18.117188 -8.480469 18.242188 -8.230469 18.367188 -7.984375 L 18.460938 -7.765625 C 17.617188 -6.609375 16.714844 -5.550781 15.808594 -4.707031 C 13.222656 -2.277344 9.511719 -1.464844 7.328125 -1.464844 Z M 19.238281 -8.824219 C 19.144531 -9.042969 19.050781 -9.261719 18.925781 -9.449219 C 16.433594 -15 13.96875 -23.480469 13.90625 -26.691406 L 13.90625 -27.160156 C 13.90625 -32.148438 15.371094 -35.640625 17.898438 -36.515625 C 18.273438 -36.640625 18.679688 -36.703125 19.050781 -36.703125 C 20.488281 -36.703125 21.953125 -35.859375 23.167969 -34.300781 C 24.851562 -32.148438 25.414062 -29.40625 25.414062 -26.753906 C 25.414062 -23.824219 24.726562 -20.984375 24.136719 -19.019531 C 23.042969 -15.433594 21.265625 -11.816406 19.238281 -8.824219 Z M 19.238281 -8.824219 "/></g></g></g><g fill="#ffffff" fill-opacity="1"><g transform="translate(153.934827, 360.502918)"><g><path d="M 8.417969 0.0625 C 11.507812 0.0625 15.0625 -1.683594 18.523438 -7.203125 C 18.585938 -7.296875 18.585938 -7.390625 18.585938 -7.484375 C 18.585938 -7.703125 18.492188 -7.890625 18.335938 -8.015625 C 18.242188 -8.078125 18.117188 -8.105469 18.023438 -8.105469 C 17.804688 -8.105469 17.617188 -8.015625 17.523438 -7.828125 C 14.71875 -3.367188 11.664062 -1.121094 8.417969 -1.121094 C 7.015625 -1.121094 5.582031 -1.527344 4.117188 -2.371094 C 2.589844 -3.210938 1.308594 -4.988281 0.75 -7.015625 C 1.746094 -6.734375 2.773438 -6.578125 3.773438 -6.578125 C 4.613281 -6.578125 5.457031 -6.703125 6.269531 -6.890625 C 8.136719 -7.359375 9.730469 -8.324219 10.757812 -9.636719 C 11.445312 -10.539062 11.785156 -11.507812 11.785156 -12.410156 C 11.785156 -13.222656 11.539062 -14 11.039062 -14.6875 C 9.914062 -16.277344 8.292969 -17.148438 6.515625 -17.148438 L 6.238281 -17.148438 C 3.929688 -17.027344 1.683594 -15.496094 0.28125 -13.035156 C -0.40625 -11.878906 -0.75 -10.570312 -0.75 -9.167969 L -0.6875 -8.199219 L -0.71875 -8.136719 L -0.75 -7.921875 C -0.75 -7.765625 -0.6875 -7.609375 -0.59375 -7.515625 L -0.40625 -6.796875 C 0.21875 -4.429688 1.746094 -2.339844 3.523438 -1.339844 C 4.925781 -0.53125 6.609375 0.0625 8.417969 0.0625 Z M 3.804688 -7.765625 C 2.773438 -7.765625 1.652344 -7.921875 0.5 -8.324219 L 0.4375 -9.230469 C 0.4375 -10.382812 0.71875 -11.507812 1.277344 -12.441406 C 2.496094 -14.5625 4.398438 -15.871094 6.296875 -15.964844 L 6.546875 -15.964844 C 7.953125 -15.964844 9.199219 -15.277344 10.101562 -14 C 10.445312 -13.53125 10.632812 -13.003906 10.632812 -12.441406 C 10.632812 -11.753906 10.351562 -11.039062 9.824219 -10.351562 C 8.667969 -8.855469 6.453125 -7.765625 3.804688 -7.765625 Z M 3.804688 -7.765625 "/></g></g></g><g fill="#ffffff" fill-opacity="1"><g transform="translate(171.863288, 360.502918)"><g><path d="M 13.035156 -7.734375 C 12.910156 -7.953125 12.660156 -8.078125 12.441406 -8.046875 C 12.316406 -8.046875 12.253906 -8.015625 12.191406 -7.984375 C 11.816406 -7.796875 11.445312 -7.640625 11.101562 -7.453125 C 10.070312 -6.984375 9.167969 -6.578125 8.417969 -6.296875 C 8.574219 -6.640625 8.699219 -6.984375 8.855469 -7.296875 C 10.351562 -10.882812 11.382812 -14.53125 11.257812 -15.808594 C 11.195312 -16.464844 10.820312 -16.652344 10.570312 -16.683594 C 10.507812 -16.714844 10.445312 -16.714844 10.289062 -16.683594 C 9.945312 -16.652344 9.324219 -16.339844 8.046875 -14.5625 C 7.046875 -13.222656 6.144531 -11.691406 5.550781 -10.289062 C 4.894531 -8.761719 4.582031 -7.578125 4.675781 -6.671875 C 4.769531 -5.925781 5.050781 -5.425781 5.613281 -5.082031 C 5.832031 -4.957031 6.082031 -4.863281 6.328125 -4.832031 C 5.019531 -2.433594 3.804688 -0.84375 2.835938 -0.40625 C 2.589844 -0.28125 2.214844 -0.15625 1.933594 -0.15625 C 1.777344 -0.125 1.652344 -0.15625 1.527344 -0.25 C 1.214844 -0.4375 1.027344 -0.996094 0.933594 -1.933594 C 0.902344 -2.277344 0.875 -2.683594 0.875 -3.148438 C 0.875 -4.957031 1.089844 -7.546875 1.339844 -10.820312 C 1.402344 -11.476562 1.433594 -12.128906 1.496094 -12.847656 L 1.496094 -12.941406 C 1.464844 -13.222656 1.246094 -13.472656 0.933594 -13.472656 L 0.8125 -13.441406 C 0.5 -13.441406 0.28125 -13.222656 0.25 -12.941406 C 0.1875 -12.222656 0.125 -11.539062 0.09375 -10.882812 C -0.28125 -6.609375 -0.53125 -3.710938 -0.34375 -1.839844 C -0.21875 -0.53125 0.125 0.28125 0.78125 0.71875 C 1.152344 0.964844 1.589844 1.027344 2.058594 0.996094 C 2.464844 0.964844 2.898438 0.84375 3.335938 0.65625 C 4.988281 -0.03125 6.578125 -2.527344 7.734375 -4.863281 C 8.792969 -5.082031 10.101562 -5.675781 11.664062 -6.421875 C 12.003906 -6.609375 12.378906 -6.765625 12.753906 -6.953125 C 13.003906 -7.046875 13.128906 -7.296875 13.097656 -7.515625 C 13.097656 -7.578125 13.066406 -7.671875 13.035156 -7.734375 Z M 6.890625 -5.957031 C 6.640625 -5.957031 6.453125 -6.019531 6.269531 -6.082031 C 6.082031 -6.238281 5.957031 -6.421875 5.925781 -6.765625 C 5.925781 -6.859375 5.925781 -6.984375 5.925781 -7.109375 C 5.988281 -8.292969 6.734375 -10.195312 7.953125 -12.222656 C 8.730469 -13.5625 9.511719 -14.5 9.976562 -15.03125 C 9.792969 -13.78125 9.042969 -11.070312 7.796875 -8.046875 C 7.484375 -7.328125 7.203125 -6.609375 6.890625 -5.957031 Z M 6.890625 -5.957031 "/></g></g></g><g fill="#ffffff" fill-opacity="1"><g transform="translate(184.366444, 360.502918)"><g><path d="M 8.417969 0.0625 C 11.507812 0.0625 15.0625 -1.683594 18.523438 -7.203125 C 18.585938 -7.296875 18.585938 -7.390625 18.585938 -7.484375 C 18.585938 -7.703125 18.492188 -7.890625 18.335938 -8.015625 C 18.242188 -8.078125 18.117188 -8.105469 18.023438 -8.105469 C 17.804688 -8.105469 17.617188 -8.015625 17.523438 -7.828125 C 14.71875 -3.367188 11.664062 -1.121094 8.417969 -1.121094 C 7.015625 -1.121094 5.582031 -1.527344 4.117188 -2.371094 C 2.589844 -3.210938 1.308594 -4.988281 0.75 -7.015625 C 1.746094 -6.734375 2.773438 -6.578125 3.773438 -6.578125 C 4.613281 -6.578125 5.457031 -6.703125 6.269531 -6.890625 C 8.136719 -7.359375 9.730469 -8.324219 10.757812 -9.636719 C 11.445312 -10.539062 11.785156 -11.507812 11.785156 -12.410156 C 11.785156 -13.222656 11.539062 -14 11.039062 -14.6875 C 9.914062 -16.277344 8.292969 -17.148438 6.515625 -17.148438 L 6.238281 -17.148438 C 3.929688 -17.027344 1.683594 -15.496094 0.28125 -13.035156 C -0.40625 -11.878906 -0.75 -10.570312 -0.75 -9.167969 L -0.6875 -8.199219 L -0.71875 -8.136719 L -0.75 -7.921875 C -0.75 -7.765625 -0.6875 -7.609375 -0.59375 -7.515625 L -0.40625 -6.796875 C 0.21875 -4.429688 1.746094 -2.339844 3.523438 -1.339844 C 4.925781 -0.53125 6.609375 0.0625 8.417969 0.0625 Z M 3.804688 -7.765625 C 2.773438 -7.765625 1.652344 -7.921875 0.5 -8.324219 L 0.4375 -9.230469 C 0.4375 -10.382812 0.71875 -11.507812 1.277344 -12.441406 C 2.496094 -14.5625 4.398438 -15.871094 6.296875 -15.964844 L 6.546875 -15.964844 C 7.953125 -15.964844 9.199219 -15.277344 10.101562 -14 C 10.445312 -13.53125 10.632812 -13.003906 10.632812 -12.441406 C 10.632812 -11.753906 10.351562 -11.039062 9.824219 -10.351562 C 8.667969 -8.855469 6.453125 -7.765625 3.804688 -7.765625 Z M 3.804688 -7.765625 "/></g></g></g><g fill="#ffffff" fill-opacity="1"><g transform="translate(202.294905, 360.502918)"><g><path d="M 0.875 -8.667969 C 0.53125 -13.347656 0.59375 -17.992188 1.058594 -22.574219 C 1.058594 -22.730469 1.152344 -23.605469 1.371094 -25.164062 C 1.558594 -26.722656 1.871094 -28.5 2.277344 -30.527344 C 2.621094 -32.117188 2.929688 -33.363281 3.273438 -34.332031 C 3.585938 -35.265625 3.898438 -35.984375 4.179688 -36.453125 C 4.460938 -36.917969 4.675781 -37.261719 4.894531 -37.417969 C 5.113281 -37.574219 5.269531 -37.636719 5.363281 -37.636719 L 5.394531 -37.636719 C 6.050781 -37.605469 6.640625 -37.199219 7.171875 -36.421875 C 7.703125 -35.609375 8.046875 -34.707031 8.199219 -33.675781 C 8.292969 -33.085938 8.386719 -32.460938 8.449219 -31.804688 C 8.667969 -29.871094 8.667969 -27.660156 8.417969 -25.132812 C 8.136719 -22.605469 7.453125 -19.957031 6.296875 -17.117188 C 5.144531 -14.28125 3.335938 -11.476562 0.875 -8.667969 Z M 12.253906 -7.921875 C 11.910156 -7.390625 11.320312 -6.546875 10.507812 -5.425781 C 9.699219 -4.304688 8.824219 -3.367188 7.921875 -2.589844 C 6.640625 -1.496094 5.644531 -0.964844 4.957031 -0.964844 C 4.429688 -0.933594 4.023438 -0.996094 3.742188 -1.121094 C 3.023438 -1.339844 2.464844 -1.964844 2.027344 -3.054688 C 1.589844 -4.117188 1.277344 -5.457031 1.058594 -7.109375 C 4.863281 -11.132812 7.421875 -15.652344 8.761719 -20.671875 C 9.730469 -24.257812 10.007812 -27.90625 9.636719 -31.679688 C 9.574219 -32.398438 9.480469 -33.148438 9.355469 -33.863281 C 9.136719 -35.203125 8.667969 -36.359375 7.984375 -37.355469 C 7.265625 -38.324219 6.390625 -38.820312 5.300781 -38.820312 L 5.269531 -38.820312 C 4.304688 -38.726562 3.429688 -37.792969 2.683594 -36.046875 C 2.121094 -34.769531 1.621094 -32.992188 1.152344 -30.746094 C 0.75 -28.71875 0.4375 -26.910156 0.21875 -25.320312 C 0 -23.730469 -0.09375 -22.855469 -0.125 -22.699219 C -0.15625 -22.296875 -0.25 -21.015625 -0.375 -18.863281 C -0.53125 -16.714844 -0.5625 -14.28125 -0.5 -11.570312 C -0.4375 -10.007812 -0.34375 -8.605469 -0.1875 -7.328125 C -0.1875 -7.234375 -0.15625 -7.140625 -0.125 -7.046875 C 0.40625 -2.835938 1.621094 -0.46875 3.460938 0.03125 C 3.929688 0.1875 4.460938 0.21875 5.082031 0.1875 C 5.707031 0.15625 6.421875 -0.125 7.203125 -0.59375 C 8.511719 -1.371094 9.730469 -2.464844 10.820312 -3.898438 C 11.910156 -5.300781 12.722656 -6.453125 13.253906 -7.296875 C 13.316406 -7.421875 13.347656 -7.546875 13.347656 -7.671875 C 13.316406 -7.859375 13.222656 -8.015625 13.066406 -8.105469 C 12.972656 -8.199219 12.847656 -8.230469 12.722656 -8.199219 C 12.535156 -8.167969 12.378906 -8.078125 12.253906 -7.921875 Z M 12.253906 -7.921875 "/></g></g></g><g fill="#ffffff" fill-opacity="1"><g transform="translate(214.922779, 360.502918)"><g><path d="M 5.050781 0 C 6.421875 0 7.859375 -0.902344 9.136719 -2.589844 C 9.855469 -3.523438 10.476562 -4.644531 10.914062 -5.769531 C 12.253906 -5.832031 13.59375 -6.238281 14.5625 -7.078125 C 14.6875 -7.203125 14.78125 -7.359375 14.78125 -7.546875 C 14.78125 -7.671875 14.71875 -7.796875 14.625 -7.921875 C 14.5 -8.046875 14.34375 -8.105469 14.1875 -8.105469 C 14.03125 -8.105469 13.90625 -8.078125 13.78125 -7.984375 C 13.128906 -7.390625 12.191406 -7.046875 11.257812 -6.953125 C 11.382812 -7.484375 11.445312 -8.015625 11.445312 -8.511719 C 11.445312 -9.261719 11.289062 -9.914062 10.945312 -10.445312 C 10.726562 -10.757812 10.476562 -11.007812 10.195312 -11.226562 C 10.226562 -11.507812 10.257812 -11.785156 10.257812 -12.066406 C 10.257812 -13.316406 9.882812 -14.4375 9.261719 -15.21875 C 8.542969 -16.121094 7.453125 -16.621094 6.175781 -16.621094 C 4.367188 -16.621094 2.433594 -15.652344 1.277344 -14.15625 C 0.0625 -12.597656 -0.5625 -10.632812 -0.5625 -8.574219 C -0.5625 -7.515625 -0.375 -6.421875 -0.0625 -5.363281 C 0.71875 -2.773438 2.308594 -0.78125 4.117188 -0.15625 C 4.429688 -0.0625 4.738281 0 5.050781 0 Z M 5.082031 -1.183594 C 4.863281 -1.183594 4.675781 -1.214844 4.492188 -1.277344 C 3.054688 -1.746094 1.714844 -3.492188 1.058594 -5.707031 C 0.75 -6.671875 0.625 -7.640625 0.625 -8.574219 C 0.625 -10.382812 1.152344 -12.097656 2.183594 -13.410156 C 3.148438 -14.65625 4.707031 -15.433594 6.175781 -15.433594 C 6.828125 -15.433594 7.734375 -15.277344 8.324219 -14.5 C 8.792969 -13.875 9.074219 -13.003906 9.074219 -12.035156 L 9.074219 -11.722656 C 8.855469 -11.753906 8.667969 -11.785156 8.449219 -11.785156 L 8.199219 -11.785156 C 7.234375 -11.691406 6.421875 -11.101562 6.019531 -10.164062 C 5.863281 -9.761719 5.769531 -9.386719 5.769531 -8.980469 C 5.769531 -8.136719 6.207031 -7.359375 7.046875 -6.765625 C 7.703125 -6.269531 8.636719 -5.957031 9.667969 -5.832031 C 9.292969 -4.957031 8.824219 -4.085938 8.199219 -3.304688 C 7.171875 -1.933594 6.050781 -1.183594 5.082031 -1.183594 Z M 7.453125 -7.921875 C 7.109375 -8.230469 6.953125 -8.605469 6.953125 -9.011719 C 6.953125 -9.230469 7.015625 -9.480469 7.109375 -9.730469 C 7.328125 -10.226562 7.765625 -10.570312 8.324219 -10.632812 L 8.480469 -10.632812 C 8.605469 -10.632812 8.730469 -10.601562 8.855469 -10.570312 C 8.636719 -9.824219 8.230469 -9.042969 7.578125 -8.324219 C 7.484375 -8.199219 7.453125 -8.078125 7.453125 -7.921875 Z M 10.039062 -6.953125 C 9.386719 -6.984375 8.792969 -7.140625 8.261719 -7.390625 C 8.355469 -7.421875 8.417969 -7.484375 8.480469 -7.546875 C 9.136719 -8.292969 9.605469 -9.105469 9.882812 -9.914062 L 9.945312 -9.792969 C 10.164062 -9.480469 10.257812 -9.011719 10.257812 -8.511719 C 10.257812 -8.046875 10.195312 -7.515625 10.039062 -6.953125 Z M 10.039062 -6.953125 "/></g></g></g><g fill="#ffffff" fill-opacity="1"><g transform="translate(229.016107, 360.502918)"><g><path d="M 0.3125 6.703125 C 0.53125 6.703125 0.71875 6.640625 0.875 6.484375 C 1.308594 6.082031 1.433594 5.113281 1.433594 2.898438 L 1.402344 0.09375 C 1.371094 -0.375 1.371094 -0.84375 1.371094 -1.308594 C 3.398438 -2.027344 5.957031 -3.710938 7.765625 -5.582031 C 8.105469 -5.925781 8.417969 -6.269531 8.699219 -6.609375 C 10.414062 -6.859375 11.972656 -6.984375 13.003906 -7.015625 C 13.316406 -7.015625 13.5625 -7.296875 13.5625 -7.609375 C 13.5625 -7.890625 13.316406 -8.167969 13.035156 -8.167969 L 12.972656 -8.167969 C 12.410156 -8.167969 11.164062 -8.078125 9.636719 -7.921875 C 10.382812 -9.136719 10.757812 -10.351562 10.757812 -11.476562 C 10.757812 -11.910156 10.726562 -12.347656 10.601562 -12.753906 C 10.007812 -14.6875 8.449219 -16.089844 6.546875 -16.371094 C 6.328125 -16.402344 6.113281 -16.402344 5.925781 -16.402344 C 4.242188 -16.402344 2.742188 -15.558594 1.746094 -14 C 0.933594 -12.691406 0.5 -10.570312 0.3125 -8.199219 C 0.21875 -8.261719 0.09375 -8.261719 -0.03125 -8.261719 C -0.3125 -8.199219 -0.53125 -7.953125 -0.53125 -7.671875 L -0.5 -7.171875 C -0.5 -6.671875 -0.5625 -5.894531 -0.625 -5.050781 C -1.058594 -4.738281 -1.433594 -4.429688 -1.683594 -4.054688 C -1.964844 -3.617188 -2.121094 -3.179688 -2.121094 -2.710938 C -2.121094 -2.464844 -2.089844 -2.214844 -1.996094 -1.964844 C -1.902344 -1.621094 -1.621094 -1.183594 -0.964844 -1.027344 C -1.058594 0.375 -1.121094 1.589844 -1.121094 2.652344 C -1.121094 4.492188 -0.933594 5.769531 -0.46875 6.328125 C -0.21875 6.609375 0.0625 6.703125 0.28125 6.703125 Z M -0.875 -2.339844 C -0.933594 -2.464844 -0.933594 -2.589844 -0.933594 -2.710938 C -0.933594 -2.898438 -0.902344 -3.085938 -0.78125 -3.273438 Z M 0.1875 4.894531 C 0.125 4.460938 0.0625 3.804688 0.0625 2.742188 L 0.0625 2.214844 C 0.09375 1.277344 0.125 0.25 0.21875 -0.78125 L 0.25 2.992188 C 0.25 3.742188 0.25 4.398438 0.1875 4.894531 Z M 1.339844 -2.558594 L 1.339844 -4.800781 C 2.835938 -5.457031 4.863281 -5.957031 6.859375 -6.328125 C 5.207031 -4.644531 3.085938 -3.242188 1.339844 -2.558594 Z M 1.371094 -6.082031 C 1.496094 -9.105469 1.808594 -11.910156 2.742188 -13.378906 C 3.523438 -14.5625 4.644531 -15.21875 5.863281 -15.21875 C 6.050781 -15.21875 6.207031 -15.21875 6.359375 -15.1875 C 7.828125 -15 9.011719 -13.9375 9.480469 -12.410156 C 9.574219 -12.097656 9.605469 -11.753906 9.605469 -11.445312 C 9.605469 -10.226562 9.011719 -8.917969 8.078125 -7.703125 C 5.863281 -7.390625 3.367188 -6.859375 1.371094 -6.082031 Z M 1.371094 -6.082031 "/></g></g></g><g fill="#ffffff" fill-opacity="1"><g transform="translate(242.049324, 360.502918)"><g><path d="M 8.417969 0.0625 C 11.507812 0.0625 15.0625 -1.683594 18.523438 -7.203125 C 18.585938 -7.296875 18.585938 -7.390625 18.585938 -7.484375 C 18.585938 -7.703125 18.492188 -7.890625 18.335938 -8.015625 C 18.242188 -8.078125 18.117188 -8.105469 18.023438 -8.105469 C 17.804688 -8.105469 17.617188 -8.015625 17.523438 -7.828125 C 14.71875 -3.367188 11.664062 -1.121094 8.417969 -1.121094 C 7.015625 -1.121094 5.582031 -1.527344 4.117188 -2.371094 C 2.589844 -3.210938 1.308594 -4.988281 0.75 -7.015625 C 1.746094 -6.734375 2.773438 -6.578125 3.773438 -6.578125 C 4.613281 -6.578125 5.457031 -6.703125 6.269531 -6.890625 C 8.136719 -7.359375 9.730469 -8.324219 10.757812 -9.636719 C 11.445312 -10.539062 11.785156 -11.507812 11.785156 -12.410156 C 11.785156 -13.222656 11.539062 -14 11.039062 -14.6875 C 9.914062 -16.277344 8.292969 -17.148438 6.515625 -17.148438 L 6.238281 -17.148438 C 3.929688 -17.027344 1.683594 -15.496094 0.28125 -13.035156 C -0.40625 -11.878906 -0.75 -10.570312 -0.75 -9.167969 L -0.6875 -8.199219 L -0.71875 -8.136719 L -0.75 -7.921875 C -0.75 -7.765625 -0.6875 -7.609375 -0.59375 -7.515625 L -0.40625 -6.796875 C 0.21875 -4.429688 1.746094 -2.339844 3.523438 -1.339844 C 4.925781 -0.53125 6.609375 0.0625 8.417969 0.0625 Z M 3.804688 -7.765625 C 2.773438 -7.765625 1.652344 -7.921875 0.5 -8.324219 L 0.4375 -9.230469 C 0.4375 -10.382812 0.71875 -11.507812 1.277344 -12.441406 C 2.496094 -14.5625 4.398438 -15.871094 6.296875 -15.964844 L 6.546875 -15.964844 C 7.953125 -15.964844 9.199219 -15.277344 10.101562 -14 C 10.445312 -13.53125 10.632812 -13.003906 10.632812 -12.441406 C 10.632812 -11.753906 10.351562 -11.039062 9.824219 -10.351562 C 8.667969 -8.855469 6.453125 -7.765625 3.804688 -7.765625 Z M 3.804688 -7.765625 "/></g></g></g><g fill="#ffffff" fill-opacity="1"><g transform="translate(259.977785, 360.502918)"><g><path d="M 1.464844 3.679688 C 2.589844 3.492188 4.644531 0.6875 8.542969 -5.113281 C 8.949219 -5.925781 10.039062 -6.890625 10.039062 -7.578125 C 10.039062 -7.734375 9.976562 -7.890625 9.824219 -8.015625 C 9.730469 -8.078125 9.636719 -8.105469 9.542969 -8.105469 C 8.792969 -8.105469 8.230469 -6.484375 7.609375 -5.769531 C 6.238281 -3.742188 2.960938 1.214844 1.496094 2.402344 C 2.058594 -0.25 5.488281 -4.863281 5.488281 -7.203125 C 5.488281 -8.078125 4.988281 -8.636719 3.679688 -8.636719 C 3.023438 -8.636719 2.183594 -8.511719 1.121094 -8.230469 C 2.558594 -10.101562 3.835938 -11.910156 3.835938 -13.625 C 3.835938 -14.375 3.617188 -15.0625 3.085938 -15.746094 C 2.558594 -16.183594 1.902344 -16.371094 1.214844 -16.371094 C -1.246094 -16.371094 -4.179688 -14.03125 -4.179688 -11.351562 C -4.179688 -10.882812 -4.117188 -10.445312 -3.929688 -9.976562 C -3.054688 -7.578125 -1.777344 -6.984375 -0.375 -6.984375 C 0.875 -6.984375 2.183594 -7.453125 3.398438 -7.453125 C 3.710938 -7.453125 4.023438 -7.421875 4.335938 -7.328125 C 4.367188 -7.265625 4.367188 -7.171875 4.367188 -7.046875 C 4.367188 -5.988281 2.992188 -3.617188 2.402344 -2.464844 C 1.371094 -0.53125 0.3125 1.308594 0.3125 2.496094 C 0.3125 3.117188 0.625 3.554688 1.464844 3.679688 Z M -0.53125 -8.136719 C -1.496094 -8.230469 -2.339844 -8.792969 -2.867188 -10.351562 C -2.960938 -10.695312 -2.992188 -11.007812 -2.992188 -11.289062 C -2.992188 -13.65625 -0.53125 -15.21875 1.152344 -15.21875 C 2.058594 -15.21875 2.742188 -14.78125 2.742188 -13.78125 C 2.742188 -12.660156 1.871094 -10.820312 -0.53125 -8.136719 Z M -0.53125 -8.136719 "/></g></g></g></svg>